# xmcd
#
# Track frame offsets: 
#        150
#        21683
#        38142
#        60939
#        81610
#        97852
#        115358
#        135396
#        152704
#        167016
#
# Disc length: 2502 seconds
#
# Revision: 0
# Processed by: cddbd v1.5.2PL0 Copyright (c) Steve Scherf et al.
# Submitted via: ExactAudioCopy v1.0b3
#
DISCID=7c09c40a
DTITLE=Huong Lan - Tinh Yeu Nhu Bai Ca
DYEAR=1996
DGENRE=
TTITLE0=Sao troi lap lanh
TTITLE1=Tinh thon da
TTITLE2=Tuan Anh - Tren bo bien vang
TTITLE3=Tim quen
TTITLE4=Huong Lan, Tuan Anh - Nguoi trong mong
TTITLE5=Tinh yeu nhu bai ca
TTITLE6=Mua sau
TTITLE7=Huong Lan, Tuan Dat - Tinh tren non cao
TTITLE8=Noi sau khon nguoi
TTITLE9=Da ly huong
EXTD=
EXTT0=
EXTT1=
EXTT2=
EXTT3=
EXTT4=
EXTT5=
EXTT6=
EXTT7=
EXTT8=
EXTT9=
PLAYORDER=
